<svg width="96" height="112" viewBox="0 0 96 112" fill="none" xmlns="http://www.w3.org/2000/svg">
  <path d="M48 4L84 18V48C84 71.748 68.67 91.698 48 104C27.33 91.698 12 71.748 12 48V18L48 4Z" fill="#D8D5FF"/>
  <path d="M48 28C41.3726 28 36 33.3726 36 40V47H32C29.7909 47 28 48.7909 28 51V72C28 74.2091 29.7909 76 32 76H64C66.2091 76 68 74.2091 68 72V51C68 48.7909 66.2091 47 64 47H60V40C60 33.3726 54.6274 28 48 28ZM48 22C58.4934 22 67 30.5066 67 41V47H69C72.3137 47 75 49.6863 75 53V73C75 76.3137 72.3137 79 69 79H27C23.6863 79 21 76.3137 21 73V53C21 49.6863 23.6863 47 27 47H29V41C29 30.5066 37.5066 22 48 22ZM48 55C44.6863 55 42 57.6863 42 61C42 63.2856 43.2721 65.2734 45.145 66.2913L44 72H52L50.855 66.2913C52.7279 65.2734 54 63.2856 54 61C54 57.6863 51.3137 55 48 55Z" fill="white"/>
</svg>
